<?xml version="1.0" standalone="no"?>
<!DOCTYPE svg PUBLIC "-//W3C//DTD SVG 20010904//EN"
 "http://www.w3.org/TR/2001/REC-SVG-20010904/DTD/svg10.dtd">
<svg version="1.0" xmlns="http://www.w3.org/2000/svg"
 width="1024.000000pt" height="1024.000000pt" viewBox="0 0 1024.000000 1024.000000"
 preserveAspectRatio="xMidYMid meet">

  <defs>
    <radialGradient id="customGradient"
      x1="0" y1="0" x2="1200" y2="1200">
      <stop offset="0%" style="stop-color:#16A085" /> 
      <stop offset="100%" style="stop-color:#F4D03F" />
    </radialGradient>
  </defs>

<g transform="translate(0.000000,1024.000000) scale(0.100000,-0.100000)" fill="url(#customGradient)" stroke="none">
<path d="M4950 9477 c-180 -54 -314 -174 -400 -360 -27 -58 -61 -230 -48 -243
3 -2 27 8 54 24 27 17 69 40 93 53 37 20 47 33 64 79 50 140 198 268 335 290
187 31 363 -68 463 -260 42 -81 47 -86 104 -113 33 -16 73 -41 89 -55 l29 -27
-6 72 c-19 240 -223 488 -450 549 -81 22 -238 17 -327 -9z"/>
<path d="M3876 9342 c-6 -19 -25 -155 -26 -184 0 -9 -14 -25 -31 -35 -44 -26
-69 -72 -69 -127 0 -58 21 -101 60 -121 23 -12 30 -23 31 -48 6 -205 10 -291
14 -296 3 -2 11 1 17 7 7 7 20 12 30 12 17 0 18 12 18 153 l0 152 30 17 c38
22 70 74 70 116 0 50 -35 110 -75 129 l-35 17 0 90 c0 94 -7 136 -20 136 -5 0
-11 -8 -14 -18z"/>
<path d="M6337 9260 c-4 -14 -7 -44 -7 -67 0 -27 -6 -47 -16 -55 -91 -72 -110
-119 -78 -197 14 -33 28 -50 52 -60 l32 -15 0 -152 0 -152 35 -21 35 -20 0
173 0 174 25 6 c30 8 60 53 70 103 8 46 -25 115 -70 143 -40 25 -45 36 -46
108 -1 32 -4 46 -7 32 l-5 -25 -7 25 -6 25 -7 -25z"/>
<path d="M3123 9250 c-47 -28 -77 -92 -69 -148 7 -49 44 -107 76 -117 19 -6
20 -15 20 -251 l0 -244 -137 0 -138 0 -17 40 c-13 31 -27 45 -60 60 -24 11
-54 20 -68 20 -27 0 -74 -27 -100 -57 -14 -17 -25 -18 -150 -8 l-135 10 3 43
c3 39 -1 47 -36 83 -34 34 -46 39 -84 39 -73 0 -128 -58 -128 -134 0 -37 37
-90 69 -101 17 -5 19 -23 26 -158 l7 -152 39 0 39 -1 0 148 0 148 120 2 c66 1
137 2 157 3 33 0 38 -3 43 -30 11 -51 40 -96 76 -117 l34 -20 0 -144 c0 -131
2 -144 19 -154 49 -26 51 -21 51 150 l0 159 29 16 c16 8 39 30 51 50 12 19 27
36 33 36 25 3 164 -2 210 -7 l47 -6 1 -86 c0 -102 11 -173 22 -154 5 6 19 12
33 12 l24 0 0 405 c0 328 3 405 13 405 15 0 59 45 76 77 17 34 13 95 -9 131
-41 68 -124 91 -187 52z"/>
<path d="M6995 9254 c-45 -22 -68 -61 -73 -120 -5 -59 19 -111 64 -141 l24
-15 0 -399 c0 -283 3 -399 11 -399 6 0 24 -9 40 -21 27 -19 29 -19 27 -2 0 10
0 70 0 134 2 137 -13 124 163 135 l115 7 14 -33 c8 -18 29 -48 47 -66 l33 -33
7 -138 8 -138 25 0 25 0 5 142 5 141 46 36 c44 33 69 76 69 117 0 18 11 19
155 19 l155 0 0 -150 0 -150 38 0 39 0 6 153 6 152 30 25 c39 34 51 60 51 115
0 52 -20 90 -61 111 -83 42 -169 -28 -169 -139 0 -42 -2 -45 -31 -51 -17 -3
-80 -6 -139 -6 -85 0 -110 3 -121 16 -57 68 -169 54 -219 -28 l-18 -30 -141
-4 -141 -4 0 250 c0 207 2 250 14 250 21 0 73 64 81 100 26 118 -88 216 -190
164z"/>
<path d="M5249 8999 c-41 -44 -40 -91 3 -131 18 -17 94 -60 168 -96 74 -35
180 -91 235 -122 113 -65 338 -190 465 -260 534 -292 961 -530 1120 -625 85
-50 214 -125 285 -165 72 -40 150 -87 175 -105 63 -45 124 -75 156 -75 29 0
94 58 94 84 0 46 -30 74 -142 133 -62 32 -176 95 -253 139 -77 45 -187 107
-245 139 -58 33 -161 91 -230 130 -69 39 -165 93 -215 120 -49 26 -115 62
-145 80 -30 17 -136 76 -235 130 -273 149 -675 377 -776 441 -20 12 -78 43
-130 69 -52 26 -112 60 -134 75 -58 40 -121 70 -146 70 -11 0 -34 -14 -50 -31z"/>
<path d="M4844 8982 c-32 -20 -84 -50 -114 -66 -30 -16 -80 -43 -110 -61 -157
-92 -670 -380 -770 -432 -63 -33 -178 -95 -255 -138 -77 -43 -192 -106 -255
-140 -63 -34 -153 -84 -200 -110 -47 -26 -128 -71 -180 -100 -52 -29 -126 -71
-165 -92 -241 -135 -347 -192 -397 -213 -128 -53 -149 -143 -46 -196 15 -8 35
-14 45 -14 9 0 71 35 138 78 144 94 270 170 345 207 30 15 109 60 175 100 125
75 349 199 640 353 94 49 195 105 225 122 54 32 286 159 531 290 69 37 152 85
185 106 32 21 104 58 159 82 131 57 179 85 206 123 31 44 29 86 -5 116 -40 34
-82 30 -152 -15z"/>
<path d="M5452 8623 c-79 -123 -236 -187 -395 -163 -93 13 -206 68 -247 118
-16 20 -38 47 -47 59 l-18 22 -72 -42 c-40 -22 -73 -46 -73 -52 0 -24 77 -117
130 -156 120 -90 240 -130 385 -130 191 0 388 101 494 255 18 26 31 48 29 49
-1 2 -23 12 -48 24 -25 12 -59 31 -76 43 l-32 20 -30 -47z"/>
<path d="M3878 8163 l-28 -4 0 -125 c0 -116 1 -124 19 -124 11 0 27 -3 35 -6
14 -5 16 9 14 130 -1 75 -4 135 -7 135 -4 -1 -18 -4 -33 -6z"/>
<path d="M6337 8111 c-4 -35 -7 -95 -7 -132 0 -68 0 -69 26 -69 l27 0 -6 68
c-4 37 -7 93 -7 125 0 33 -4 56 -9 53 -5 -4 -11 0 -13 6 -3 7 -8 -16 -11 -51z"/>
<path d="M2129 8065 c-255 -62 -439 -283 -456 -545 -13 -206 104 -443 270
-548 36 -23 77 -44 91 -48 l26 -6 0 95 0 96 -44 32 c-25 17 -63 57 -84 88 -94
134 -104 295 -30 451 31 64 126 155 195 188 52 24 69 27 163 27 119 0 166 -16
244 -80 43 -35 43 -35 67 -16 14 10 50 34 81 53 l56 34 -56 47 c-71 59 -169
111 -248 131 -74 19 -198 19 -275 1z"/>
<path d="M7835 8056 c-107 -35 -192 -82 -247 -137 l-50 -50 58 -35 c33 -20 67
-42 76 -51 15 -14 21 -12 60 19 63 50 89 64 148 82 178 53 382 -35 460 -197
85 -176 51 -386 -82 -519 -29 -29 -60 -57 -69 -63 -13 -8 -15 -24 -10 -102 l6
-92 64 32 c78 38 185 141 229 217 57 101 85 204 86 310 0 118 -14 181 -69 295
-72 151 -181 243 -349 294 -95 29 -217 28 -311 -3z"/>
<path d="M4883 7817 c-132 -128 -362 -349 -510 -492 -148 -143 -279 -268 -291
-277 l-22 -18 0 -2065 0 -2065 73 0 74 0 6 194 c4 107 4 215 1 240 -6 42 -5
45 17 50 13 2 72 16 131 30 59 14 114 26 123 26 13 0 15 -37 17 -272 l3 -272
68 -1 68 0 -1 296 -1 296 33 6 c138 24 311 58 332 67 l26 10 0 -345 0 -345 49
0 c26 0 69 3 95 6 l47 7 -3 338 c-2 187 -1 339 2 338 3 0 88 -19 190 -43 l185
-43 3 -296 2 -297 70 0 70 0 0 275 c0 151 4 275 9 275 4 0 53 -11 107 -24 54
-13 113 -27 131 -31 l32 -6 -2 -67 c-1 -37 -1 -147 1 -244 l2 -178 75 0 75 0
0 2089 0 2090 -22 7 c-13 4 -106 88 -208 188 -102 100 -284 275 -405 391 -121
115 -263 251 -315 302 l-95 92 -242 -232z m586 -352 l134 -128 4 -210 4 -210
-98 93 c-54 51 -145 129 -202 174 l-103 81 6 119 c3 66 6 166 6 224 l0 105 58
-59 c31 -33 117 -118 191 -189z m-439 11 l0 -214 -32 -19 c-18 -11 -108 -88
-200 -172 l-168 -152 0 216 0 215 32 20 c28 17 160 133 323 282 22 21 41 38
43 38 1 0 2 -96 2 -214z m793 -367 c43 -39 104 -103 136 -143 l59 -72 0 -157
1 -158 -50 42 c-28 23 -89 77 -136 120 -47 44 -90 79 -95 79 -4 0 -8 81 -8
180 0 99 4 180 8 180 5 0 43 -32 85 -71z m-1313 -112 c0 -163 -1 -174 -20
-183 -11 -5 -72 -56 -136 -114 -64 -58 -123 -109 -130 -113 -12 -7 -14 19 -14
155 l0 163 31 38 c46 56 238 227 255 227 12 0 14 -30 14 -173z m523 -89 c-4
-105 -10 -155 -18 -160 -31 -18 -140 -105 -255 -201 -69 -57 -126 -104 -127
-103 -1 1 -3 68 -4 150 l-2 149 44 33 c24 19 114 90 199 158 85 69 158 125
162 125 3 1 4 -68 1 -151z m268 85 c45 -38 121 -102 168 -143 47 -41 98 -85
114 -96 l27 -22 0 -141 c0 -78 -4 -141 -9 -141 -5 0 -14 7 -22 16 -23 28 -285
239 -333 270 l-48 29 6 104 c3 57 6 124 6 148 0 23 2 43 5 43 3 0 42 -30 86
-67z m-791 -507 l0 -134 -27 -17 c-16 -10 -81 -58 -145 -106 -64 -49 -119 -89
-122 -89 -3 0 -6 58 -6 128 l0 128 102 79 c56 44 120 96 142 117 23 20 44 34
48 32 5 -3 8 -65 8 -138z m1335 53 c50 -44 109 -92 132 -107 l42 -27 1 -132
c0 -73 -2 -133 -5 -133 -4 0 -174 128 -254 191 l-32 26 7 131 c4 73 10 132 13
131 3 0 47 -36 96 -80z m-805 -127 c0 -146 0 -149 -23 -159 -22 -10 -229 -156
-339 -239 l-48 -36 0 145 c0 107 3 146 13 150 11 4 173 122 326 238 36 27 66
49 68 49 2 0 3 -67 3 -148z m419 -41 c58 -46 116 -90 129 -99 21 -14 22 -20
22 -148 0 -74 -4 -134 -8 -134 -5 0 -51 32 -103 72 -196 149 -225 170 -261
189 l-38 19 6 123 c3 67 7 132 10 144 5 25 -13 37 243 -166z m-949 -346 c0
-74 -4 -135 -9 -135 -4 0 -70 -43 -146 -95 -75 -52 -139 -95 -141 -95 -2 0 -4
59 -4 130 0 83 4 130 10 130 6 0 36 20 68 45 99 77 207 155 214 155 5 0 8 -61
8 -135z m1366 33 c67 -51 129 -97 136 -103 11 -8 13 -35 9 -132 l-6 -123 -34
28 c-40 30 -210 152 -236 167 -15 9 -16 24 -10 133 4 67 10 122 13 122 2 0 60
-42 128 -92z m-836 -143 l0 -145 -37 -19 c-21 -11 -110 -67 -198 -124 -104
-68 -163 -100 -167 -93 -4 6 -8 68 -8 138 l0 126 193 130 c105 72 198 131 205
131 9 1 12 -34 12 -144z m333 42 c84 -57 171 -116 194 -133 l42 -29 0 -120 c1
-66 -3 -126 -8 -133 -6 -11 -45 11 -162 91 -85 57 -174 114 -198 126 -40 21
-43 25 -37 53 3 17 6 79 6 139 0 60 3 109 6 109 3 0 74 -46 157 -103z m-863
-387 l0 -125 -118 -73 c-64 -40 -132 -82 -149 -93 l-33 -21 0 130 0 130 29 19
c82 51 231 156 242 169 22 27 29 -5 29 -136z m1403 23 l107 -78 0 -127 c0 -71
-3 -128 -6 -128 -3 0 -18 9 -32 21 -15 11 -78 52 -139 92 l-113 71 4 115 c2
64 5 124 5 134 1 18 3 18 34 -2 17 -11 80 -55 140 -98z m-873 -160 l0 -148
-133 -75 c-72 -41 -161 -92 -196 -113 -35 -21 -65 -36 -68 -33 -2 2 -7 65 -10
140 -6 127 -5 136 13 143 10 4 55 29 99 57 44 27 118 72 165 99 47 27 94 56
105 63 11 8 21 14 22 14 2 0 3 -66 3 -147z m385 19 l180 -109 3 -109 c2 -60 0
-124 -3 -142 l-6 -33 -32 18 c-17 10 -93 54 -168 98 -75 44 -151 88 -169 98
-26 14 -31 22 -26 40 3 12 6 77 6 145 0 114 1 122 18 113 9 -6 98 -59 197
-119z m-914 -346 l1 -115 -103 -54 c-57 -30 -125 -67 -151 -82 l-48 -27 0 125
0 124 53 34 c219 141 232 148 239 129 4 -10 8 -71 9 -134z m1470 5 l37 -20 4
-128 c2 -70 4 -129 3 -130 -1 -2 -55 26 -120 62 -65 35 -131 69 -147 76 -32
13 -34 28 -22 196 l7 90 101 -63 c55 -35 117 -73 137 -83z m-941 -180 l0 -148
-197 -90 c-109 -50 -199 -90 -200 -89 -1 0 -3 64 -4 140 l-3 139 182 92 c100
50 187 96 194 103 6 6 15 9 20 6 4 -3 8 -72 8 -153z m384 44 l186 -100 0 -137
c0 -76 -2 -138 -3 -138 -2 0 -60 26 -128 58 -68 32 -159 74 -202 93 -52 23
-75 38 -72 47 3 8 5 74 5 149 0 110 3 134 14 131 8 -2 98 -48 200 -103z m-915
-317 l1 -107 -32 -17 c-50 -26 -251 -114 -260 -114 -4 0 -8 55 -8 123 l0 122
143 75 142 75 6 -25 c4 -14 7 -73 8 -132z m1365 82 c70 -38 132 -70 137 -70 5
0 9 -58 9 -129 l0 -129 -142 64 -143 64 0 135 c0 74 2 135 5 135 3 0 63 -31
134 -70z m-520 -210 c50 -21 127 -53 171 -71 l80 -34 0 -145 c0 -123 -2 -145
-15 -142 -8 1 -91 28 -185 59 -93 30 -176 57 -182 59 -10 3 -13 46 -13 175 l0
171 27 -17 c15 -10 68 -35 117 -55z m-314 -102 l0 -163 -168 -54 c-92 -29
-180 -60 -195 -68 -16 -8 -31 -12 -33 -10 -3 2 -5 71 -5 152 l-1 147 194 78
c106 43 196 79 201 79 4 1 7 -72 7 -161z m-528 -183 c1 -69 2 -133 2 -142 1
-13 -35 -30 -151 -74 l-153 -56 0 136 0 137 92 39 c50 22 112 50 137 62 25 12
52 22 59 22 9 1 12 -31 14 -124z m1486 2 c21 -10 22 -15 22 -143 l0 -133 -37
16 c-21 9 -85 33 -143 53 l-105 38 -3 73 c-2 41 -1 106 3 146 l7 72 116 -56
c64 -30 127 -60 140 -66z m-960 -331 c4 -162 3 -174 -15 -180 -10 -3 -79 -19
-153 -35 -74 -17 -155 -37 -179 -46 -24 -8 -47 -13 -50 -9 -3 3 -8 76 -9 163
l-4 157 79 22 c43 12 130 39 193 61 63 21 120 39 125 40 6 0 11 -65 13 -173z
m250 143 c37 -11 123 -39 192 -61 l125 -40 -4 -152 c-1 -83 -5 -153 -6 -155
-2 -2 -82 15 -177 38 -95 23 -184 44 -197 47 -18 4 -22 10 -17 27 3 12 6 88 6
170 0 81 2 147 5 147 3 0 36 -9 73 -21z m-784 -180 c3 -17 6 -86 6 -153 l0
-121 -128 -32 c-70 -17 -137 -35 -149 -39 l-23 -6 0 143 0 144 133 47 c72 25
137 47 143 47 6 1 14 -13 18 -30z m1394 -21 l122 -40 0 -145 c0 -133 -1 -144
-17 -139 -117 33 -167 46 -215 56 l-58 11 0 155 0 155 23 -7 c12 -3 77 -24
145 -46z"/>
<path d="M6254 7572 c-116 -67 -262 -169 -275 -193 -6 -11 -8 -27 -5 -35 10
-27 66 -14 187 42 66 31 123 54 125 51 3 -3 6 -1027 7 -2275 l2 -2270 77 1
c43 0 75 4 72 9 -4 5 -3 103 1 217 l7 207 122 -26 121 -26 3 -175 2 -174 57
-1 56 0 -6 163 c-7 188 -17 174 108 139 l80 -22 3 -110 3 -110 57 27 56 28 -1
1705 -2 1705 -71 65 c-41 38 -86 69 -106 75 -45 13 -120 56 -127 75 -10 24 5
166 17 166 13 0 127 -96 140 -117 13 -23 26 3 26 50 0 52 -22 91 -94 167 -34
36 -91 103 -126 150 -35 47 -92 119 -125 160 -34 41 -101 129 -150 195 -85
117 -143 186 -154 184 -4 0 -43 -22 -87 -47z m267 -389 c35 -43 92 -112 127
-155 l62 -76 -7 -91 c-3 -50 -8 -91 -11 -91 -3 0 -51 44 -107 99 -55 54 -111
101 -123 105 -20 7 -21 12 -19 146 1 77 5 140 8 140 3 0 35 -35 70 -77z m64
-458 l125 -110 -6 -100 c-4 -55 -7 -101 -8 -101 0 -1 -58 51 -128 115 l-127
116 -1 98 c0 62 4 97 10 95 5 -1 66 -52 135 -113z m334 -279 l74 -69 1 -109
c1 -59 -1 -108 -4 -108 -3 1 -46 40 -96 88 l-92 87 5 103 c6 118 -4 117 112 8z
m-399 -30 c25 -22 78 -70 118 -108 l73 -69 -7 -89 -7 -88 -61 49 c-33 27 -91
75 -128 106 l-68 56 0 105 c0 118 -7 115 80 38z m448 -398 l32 -20 0 -99 c0
-54 -3 -99 -6 -99 -16 0 -189 167 -188 182 0 10 1 55 2 100 l2 82 63 -62 c34
-35 77 -72 95 -84z m-286 -104 c27 -21 27 -21 20 -122 l-7 -101 -127 102 -127
102 0 101 c-1 55 2 103 5 107 3 3 52 -33 108 -81 56 -48 114 -97 128 -108z
m202 -172 c34 -32 74 -67 89 -77 28 -20 28 -21 25 -120 l-3 -99 -52 46 c-28
25 -72 60 -98 78 l-48 33 7 66 c3 36 6 81 6 99 0 17 3 32 7 32 3 0 34 -26 67
-58z m-356 -74 c42 -35 100 -82 127 -106 l50 -43 -3 -104 -3 -105 -71 50 c-39
27 -97 69 -129 92 l-59 43 0 118 c0 64 2 117 5 117 2 0 40 -28 83 -62z m351
-276 c31 -26 71 -58 89 -71 l32 -22 0 -105 c0 -57 -4 -104 -8 -104 -5 0 -19
11 -32 25 -13 14 -55 47 -93 73 l-69 47 6 59 c3 32 6 79 6 102 0 24 3 44 7 44
3 0 32 -22 62 -48z m-385 -89 c20 -16 77 -57 127 -93 72 -52 89 -69 84 -85 -2
-11 -5 -59 -5 -108 l0 -87 -130 87 -130 86 0 114 c0 62 4 113 9 113 4 0 25
-12 45 -27z m378 -269 c29 -25 70 -55 90 -67 l38 -22 0 -107 0 -108 -47 36
c-27 20 -72 50 -102 67 l-53 30 6 51 c3 28 6 77 6 109 0 31 2 57 4 57 2 0 28
-21 58 -46z m-289 -174 l125 -75 -5 -110 c-3 -60 -7 -111 -8 -113 -1 -1 -24
11 -51 28 -27 17 -84 51 -126 76 l-78 44 0 116 c0 64 4 114 8 112 5 -1 65 -37
135 -78z m416 -374 l1 -109 -22 20 c-13 12 -58 40 -102 64 l-78 42 6 51 c3 28
6 77 6 109 l0 57 94 -62 94 -63 1 -109z m-491 36 c31 -16 83 -45 114 -65 31
-21 62 -37 68 -37 6 0 10 -41 10 -114 l0 -114 -127 59 -128 59 -3 120 c-1 66
0 120 3 120 3 0 32 -13 63 -28z m432 -236 l55 -31 4 -107 3 -108 -88 45 c-48
25 -94 45 -101 45 -15 0 -17 66 -7 169 l7 61 36 -22 c20 -12 61 -35 91 -52z
m-360 -191 c52 -23 101 -44 109 -46 10 -4 13 -31 12 -124 -1 -66 -3 -120 -4
-121 -1 -1 -59 19 -129 45 l-128 46 0 128 0 128 23 -7 c12 -3 65 -26 117 -49z
m318 -145 c40 -22 80 -40 88 -40 11 0 14 -21 14 -111 0 -102 -1 -111 -17 -103
-10 4 -53 20 -96 35 -43 15 -80 29 -83 32 -7 7 7 227 15 227 3 0 39 -18 79
-40z m-321 -251 l123 -41 0 -124 0 -124 -27 6 c-16 3 -66 17 -113 30 -46 13
-92 24 -102 24 -16 0 -18 12 -18 135 0 74 3 135 7 135 5 0 63 -18 130 -41z
m356 -118 l67 -23 0 -109 c0 -60 -3 -109 -7 -109 -5 0 -48 11 -98 24 -89 23
-90 24 -89 55 0 17 1 72 2 121 l2 91 28 -14 c15 -8 57 -24 95 -36z"/>
<path d="M3862 7578 c-103 -116 -166 -195 -226 -283 -38 -55 -99 -138 -136
-185 -36 -47 -76 -101 -88 -120 -11 -20 -33 -49 -47 -65 -66 -75 -128 -184
-123 -215 3 -18 7 -17 51 10 26 17 64 53 84 82 36 49 38 50 44 27 4 -13 7 -53
8 -89 0 -65 0 -65 -39 -90 -21 -14 -91 -76 -154 -138 l-116 -114 0 -1683 0
-1684 23 -7 c12 -4 39 -18 60 -31 l37 -23 0 119 0 119 46 7 c25 3 64 13 86 21
22 8 46 14 52 14 8 0 10 -47 8 -164 l-3 -164 56 -4 55 -3 0 183 0 182 28 0
c23 0 103 18 205 47 16 5 17 -10 17 -213 l0 -219 72 3 73 3 0 2277 0 2277 23
-2 c19 -2 65 -24 227 -106 17 -9 44 -17 60 -19 26 -3 30 1 33 23 2 21 -8 36
-50 73 -84 74 -282 186 -328 186 -5 0 -22 -15 -38 -32z m-72 -463 l0 -124 -32
-17 c-18 -9 -75 -57 -125 -107 -89 -88 -93 -90 -93 -62 0 17 -3 60 -6 97 l-7
66 94 99 c52 54 107 115 123 136 16 20 32 37 37 37 5 0 9 -56 9 -125z m4 -293
c0 -12 -1 -62 -2 -112 -2 -70 -5 -90 -16 -90 -8 0 -63 -45 -123 -100 -59 -55
-111 -100 -114 -100 -3 0 -5 47 -5 104 l1 103 35 34 c100 96 206 188 215 185
6 -1 10 -12 9 -24z m-459 -582 l-95 -95 0 111 0 111 93 91 92 91 3 -106 3
-107 -96 -96z m458 133 l-2 -108 -38 -29 c-21 -17 -77 -63 -125 -103 -48 -40
-90 -73 -93 -73 -3 0 -5 44 -5 98 l1 97 126 113 c69 61 129 112 132 112 3 0 5
-48 4 -107z m-363 -312 l0 -98 -62 -50 c-35 -28 -74 -63 -87 -77 -14 -14 -28
-26 -33 -26 -4 0 -8 44 -8 98 l1 97 45 34 c25 19 64 56 87 82 23 25 45 45 50
42 4 -2 7 -48 7 -102z m367 -68 l-1 -108 -130 -98 -131 -98 -3 108 c-1 61 1
109 7 111 5 2 62 45 128 97 65 52 121 95 124 95 4 0 7 -48 6 -107z m-366 -280
l4 -102 -90 -70 c-49 -39 -93 -71 -97 -71 -5 0 -8 42 -8 94 l0 94 68 55 c37
30 78 67 91 81 14 14 25 25 27 23 1 -1 3 -48 5 -104z m369 -108 l0 -115 -122
-82 c-67 -46 -127 -86 -134 -90 -7 -5 -10 26 -8 110 3 101 5 117 21 123 10 4
65 43 123 88 58 44 108 80 113 81 4 0 7 -52 7 -115z m-369 -264 l3 -105 -95
-72 c-52 -40 -95 -71 -96 -71 -1 1 -3 51 -4 110 l-3 108 33 20 c18 11 60 42
93 70 33 28 62 49 63 47 2 -2 5 -50 6 -107z m362 -133 l6 -117 -127 -80 -127
-80 -6 107 c-4 87 -3 109 9 117 8 6 65 47 126 91 61 45 112 81 112 80 1 0 4
-54 7 -118z m-360 -246 l4 -103 -93 -63 c-51 -35 -95 -61 -98 -58 -3 3 -6 49
-6 103 l0 97 93 70 c50 39 93 68 94 64 1 -4 3 -53 6 -110z m352 -269 c-11 -12
-236 -136 -240 -131 -1 2 -5 51 -8 110 -5 98 -4 108 13 113 10 3 67 38 127 78
l108 72 5 -115 c3 -70 1 -120 -5 -127z m-353 -90 c1 -60 0 -109 -3 -111 -4 -1
-47 -27 -98 -57 l-91 -54 0 108 0 108 42 19 c23 10 62 35 87 56 25 20 49 37
53 38 3 0 8 -48 10 -107z m358 -186 l0 -124 -102 -42 c-57 -24 -113 -50 -125
-57 l-23 -14 0 92 c0 51 -3 103 -6 114 -5 19 7 28 98 74 56 29 112 59 123 66
11 8 23 14 27 14 5 0 8 -55 8 -123z m-357 -280 c-4 -7 -177 -97 -188 -97 -3 0
-5 46 -5 103 l0 102 93 51 92 51 6 -101 c3 -56 4 -105 2 -109z m355 -187 l-3
-70 -119 -41 c-65 -22 -120 -39 -121 -37 -2 2 -5 57 -6 122 l-3 119 55 17 c30
9 86 33 124 52 l70 36 3 -64 c2 -35 2 -95 0 -134z m-354 -77 l3 -109 -86 -38
c-47 -20 -92 -40 -98 -43 -10 -4 -13 16 -13 83 0 49 -3 98 -6 109 -4 17 3 24
43 38 26 10 71 30 98 45 28 16 51 28 52 27 2 -1 5 -51 7 -112z m358 -267 l3
-135 -124 -30 c-68 -17 -125 -30 -126 -29 -1 2 -5 57 -9 123 l-7 121 68 18
c37 9 93 28 123 41 30 13 58 24 62 25 4 0 8 -60 10 -134z m-360 -98 c2 -62 3
-114 3 -115 -2 -4 -174 -53 -185 -53 -6 0 -10 44 -10 109 l0 109 88 30 c48 16
90 30 94 30 3 1 8 -49 10 -110z"/>
<path d="M2805 7579 c-16 -11 -56 -33 -87 -50 -56 -28 -58 -31 -58 -69 0 -72
-49 -193 -108 -265 -36 -43 -106 -95 -149 -110 l-38 -13 0 -91 c0 -104 0 -104
83 -73 231 88 402 342 402 598 0 52 -3 94 -7 94 -5 0 -21 -9 -38 -21z"/>
<path d="M7394 7565 c-13 -52 2 -217 26 -280 72 -192 248 -354 433 -399 l27
-6 -1 92 0 93 -59 28 c-127 60 -210 172 -232 313 -6 38 -12 74 -14 80 -2 9
-124 84 -166 102 -4 2 -10 -9 -14 -23z"/>
<path d="M2154 7307 l-27 -23 2 -875 c2 -967 -3 -896 67 -919 29 -10 39 -9 64
7 l30 19 4 840 c2 461 7 860 11 886 7 46 7 47 -26 67 -45 28 -91 27 -125 -2z"/>
<path d="M7979 7307 l-34 -23 0 -880 0 -881 21 -16 c37 -28 66 -29 107 -4 l38
23 0 880 0 879 -26 23 c-33 28 -63 28 -106 -1z"/>
<path d="M8614 7239 c-13 -26 -14 -34 -2 -44 18 -18 288 -164 315 -171 18 -5
21 -11 16 -34 -9 -50 14 -97 63 -126 l44 -26 0 -629 0 -630 23 -8 c21 -8 20
-9 -18 -27 -22 -11 -55 -39 -74 -65 l-34 -46 -171 -6 c-185 -6 -206 -10 -206
-37 0 -37 23 -41 207 -41 l178 1 16 -39 c11 -25 27 -43 48 -52 l31 -14 0 -601
0 -602 -33 -20 c-44 -26 -71 -82 -64 -138 l4 -42 -126 -65 c-69 -36 -151 -75
-181 -88 -30 -12 -56 -24 -58 -25 -2 -1 6 -20 17 -43 l21 -41 133 66 c72 37
155 82 184 101 l51 34 34 -21 c63 -38 135 -15 185 59 46 68 18 168 -60 211
l-40 23 6 411 c4 226 7 495 7 599 l0 187 24 0 c48 0 93 91 82 163 -9 57 -34
94 -78 116 l-39 19 1 635 c0 350 3 643 6 651 3 8 16 17 30 20 38 10 79 81 78
135 -1 92 -59 151 -146 151 -35 0 -54 -6 -76 -25 -17 -14 -33 -25 -38 -25 -14
0 -169 83 -245 131 -42 27 -81 49 -87 49 -6 0 -19 -14 -28 -31z"/>
<path d="M1530 7227 c-30 -19 -101 -59 -158 -90 l-104 -57 -28 23 c-67 57
-175 36 -218 -42 -27 -48 -28 -90 -3 -139 22 -43 46 -67 79 -76 l22 -7 0 -482
c0 -265 -3 -559 -7 -654 l-6 -172 -29 -12 c-43 -18 -78 -75 -78 -127 0 -73 53
-152 103 -152 17 0 18 -14 17 -277 -1 -153 -4 -421 -7 -595 l-6 -316 -35 -24
c-103 -67 -98 -207 9 -267 48 -27 103 -27 130 0 l21 21 139 -71 c76 -39 162
-85 191 -102 34 -20 54 -27 56 -19 2 6 14 23 27 38 l23 27 -71 33 c-40 18
-123 61 -184 95 l-113 62 0 45 c0 53 -24 96 -74 136 l-36 29 0 593 c0 505 2
592 14 592 25 0 73 49 80 80 6 31 7 31 58 28 29 -1 110 -1 180 0 114 2 130 4
149 23 16 16 18 23 8 35 -9 11 -48 14 -199 14 l-188 0 -12 31 c-7 17 -30 44
-52 61 l-38 31 2 646 3 646 27 13 c15 7 38 26 52 43 25 30 30 47 26 100 -1 21
5 29 32 39 18 7 97 49 176 93 l142 79 -17 29 c-22 37 -36 36 -103 -4z"/>
<path d="M2568 6868 l-28 -10 0 -278 c0 -265 -1 -280 -19 -290 -31 -16 -61
-74 -61 -116 0 -46 30 -100 65 -116 24 -11 25 -14 25 -119 0 -104 1 -108 26
-128 15 -12 31 -21 35 -21 5 0 9 59 9 130 0 128 0 131 24 140 32 12 62 53 70
96 9 48 -26 123 -65 137 -27 11 -27 12 -34 128 -4 65 -4 123 0 129 8 13 -5
330 -14 329 -3 0 -18 -5 -33 -11z"/>
<path d="M7627 6600 c5 -242 4 -280 -8 -280 -22 0 -78 -62 -88 -98 -14 -49 5
-101 55 -149 l44 -43 0 -114 0 -115 29 10 c26 9 30 16 36 62 4 29 5 79 3 112
-3 57 -2 61 27 80 44 30 67 81 59 130 -9 55 -30 94 -59 107 l-25 11 0 268 0
269 -36 15 c-20 8 -38 15 -40 15 -2 0 -1 -126 3 -280z"/>
<path d="M1554 6761 c-31 -19 -64 -82 -64 -122 0 -34 41 -98 72 -111 l28 -13
0 -145 0 -145 -30 -17 c-39 -22 -70 -74 -70 -118 0 -42 29 -92 67 -117 15 -10
31 -22 35 -28 4 -5 8 -79 8 -162 l0 -153 33 0 32 0 -3 164 -3 164 29 18 c40
23 62 64 62 116 0 50 -29 103 -65 120 l-25 11 0 147 0 147 25 11 c35 16 65 70
65 117 0 104 -110 169 -196 116z"/>
<path d="M8549 6757 c-73 -49 -76 -143 -7 -211 l40 -41 6 -142 c4 -124 3 -143
-10 -143 -9 0 -32 -18 -52 -40 -30 -34 -36 -47 -36 -86 0 -56 21 -97 60 -121
l30 -17 0 -163 0 -163 35 0 35 0 0 165 c0 145 2 165 16 165 27 0 82 63 89 102
9 49 -23 122 -64 146 l-31 17 0 153 c0 144 1 152 19 152 29 0 64 56 68 109 9
108 -108 179 -198 118z"/>
<path d="M1991 5822 c-66 -33 -183 -140 -216 -197 -131 -222 -36 -574 185
-685 105 -52 100 -55 100 49 0 62 -4 91 -12 91 -22 0 -79 52 -113 103 -44 67
-69 162 -60 230 14 103 71 200 147 250 45 28 49 34 44 60 -3 16 -6 51 -6 78 0
27 -3 49 -7 49 -5 0 -32 -13 -62 -28z"/>
<path d="M8177 5770 l1 -80 44 -33 c56 -42 114 -129 128 -190 21 -97 5 -209
-40 -282 -25 -41 -100 -105 -122 -105 -13 0 -15 -14 -10 -92 2 -51 6 -95 8
-97 2 -2 33 11 69 29 77 39 171 132 209 209 34 66 66 189 66 251 0 174 -114
361 -269 438 -35 18 -69 32 -75 32 -7 0 -10 -28 -9 -80z"/>
<path d="M7810 5817 c-66 -32 -173 -145 -209 -219 -65 -132 -58 -326 16 -472
44 -87 154 -188 229 -210 20 -6 21 -2 28 74 l7 81 -55 50 c-62 57 -111 146
-121 220 -15 103 51 249 141 312 34 24 44 37 40 52 -2 11 -8 46 -11 78 -4 31
-10 57 -14 57 -3 0 -26 -10 -51 -23z"/>
<path d="M2370 5756 l0 -75 59 -56 c39 -37 68 -76 86 -117 24 -54 27 -70 23
-138 -7 -112 -55 -203 -148 -275 -24 -19 -25 -24 -22 -108 l4 -87 68 36 c77
40 134 103 185 204 66 130 82 256 49 371 -35 120 -129 241 -229 293 -73 38
-75 37 -75 -48z"/>
<path d="M7980 5216 l-35 -23 2 -724 c2 -434 -1 -780 -7 -864 l-11 -140 31
-27 c36 -33 92 -37 129 -9 l23 18 -1 874 -1 874 -25 23 c-33 28 -62 28 -105
-2z"/>
<path d="M2150 5212 l-22 -18 0 -866 c0 -587 4 -872 11 -886 5 -10 23 -25 40
-31 32 -14 57 -6 96 30 20 18 20 27 17 890 -2 815 -3 873 -20 885 -25 20 -96
17 -122 -4z"/>
<path d="M2573 4932 l-33 -34 0 -216 c0 -215 0 -217 -22 -227 -33 -15 -68 -73
-68 -112 0 -50 25 -101 60 -121 l30 -17 0 -121 c0 -127 3 -135 46 -148 21 -6
22 -3 29 132 7 138 7 138 35 154 42 24 63 63 62 115 0 54 -24 91 -70 113 l-32
15 2 247 c1 137 0 249 -3 251 -2 1 -19 -13 -36 -31z"/>
<path d="M7625 4713 c7 -236 6 -253 -10 -253 -26 0 -73 -57 -81 -97 -10 -52
11 -107 54 -143 l37 -30 4 -131 c1 -71 6 -128 10 -127 3 2 18 10 34 17 l27 14
0 123 c0 119 1 122 23 128 29 7 67 73 67 115 0 48 -26 100 -60 119 l-30 17 0
227 c0 226 0 227 -22 234 -13 3 -31 14 -42 23 -18 16 -18 9 -11 -236z"/>
<path d="M1584 4859 c-41 -12 -74 -49 -84 -95 -12 -51 17 -117 59 -142 l31
-17 0 -122 0 -121 -34 -21 c-50 -31 -74 -102 -53 -153 43 -99 160 -116 226
-32 47 60 31 144 -35 187 l-34 22 0 120 0 120 29 16 c39 23 75 99 66 141 -11
47 -35 79 -72 94 -36 16 -54 16 -99 3z"/>
<path d="M8536 4849 c-31 -24 -56 -69 -56 -100 0 -36 37 -102 70 -124 l30 -20
0 -127 c0 -103 -3 -128 -14 -128 -8 0 -28 -16 -46 -37 -30 -33 -32 -41 -28
-90 6 -71 44 -113 110 -120 144 -16 204 173 78 245 l-30 17 0 123 c0 94 3 122
13 122 34 0 87 84 87 138 0 93 -140 159 -214 101z"/>
<path d="M2365 3818 l4 -93 58 -33 c159 -92 223 -189 239 -363 l7 -67 61 -32
c33 -18 68 -39 78 -47 14 -13 17 -11 22 14 26 138 8 258 -62 402 -34 69 -141
184 -216 233 -46 29 -165 78 -192 78 -2 0 -1 -42 1 -92z"/>
<path d="M1980 3856 c-138 -91 -232 -207 -277 -341 -35 -104 -39 -277 -9 -365
52 -154 165 -300 281 -362 119 -63 309 -87 435 -53 80 21 168 69 229 124 l53
48 -93 46 -94 45 -20 -24 c-24 -29 -95 -61 -163 -74 -64 -12 -159 3 -230 35
-74 34 -166 124 -203 201 -72 146 -39 356 77 484 20 22 51 49 69 60 36 22 35
16 16 167 l-6 51 -65 -42z"/>
<path d="M7779 3881 c-63 -24 -154 -89 -216 -153 -108 -111 -177 -273 -177
-413 0 -44 4 -93 8 -109 6 -26 8 -27 24 -13 10 9 48 30 85 47 l67 32 0 42 c0
58 26 153 57 205 42 72 93 121 176 169 53 31 76 50 72 59 -3 8 -5 46 -5 84 0
65 -1 69 -22 69 -13 -1 -43 -9 -69 -19z"/>
<path d="M8177 3794 c1 -94 2 -97 30 -114 39 -24 108 -100 131 -147 68 -133
68 -310 1 -429 -38 -66 -117 -140 -183 -171 -55 -25 -71 -28 -171 -28 -122 0
-181 18 -229 70 l-25 27 -28 -20 c-16 -11 -57 -33 -92 -49 l-63 -29 50 -45
c166 -149 424 -181 648 -79 93 42 207 158 258 260 143 293 47 649 -215 796
-120 68 -114 70 -112 -42z"/>
<path d="M2315 3304 c-31 -33 -32 -71 -2 -114 23 -36 48 -50 272 -155 77 -37
183 -93 236 -126 53 -32 162 -90 241 -128 80 -38 177 -90 216 -115 67 -44 467
-255 560 -296 24 -11 80 -42 125 -69 45 -27 132 -75 192 -106 61 -32 135 -73
165 -90 30 -18 120 -66 200 -107 80 -41 188 -101 240 -132 88 -53 99 -57 144
-53 40 4 55 11 78 36 44 49 35 108 -19 129 -15 6 -57 18 -93 27 -38 9 -101 38
-155 69 -49 29 -166 94 -260 143 -93 50 -210 112 -260 138 -49 26 -146 78
-215 115 -383 207 -675 364 -830 446 -96 51 -231 125 -299 164 -68 40 -165 94
-215 120 -50 26 -122 66 -161 89 -84 49 -125 53 -160 15z"/>
<path d="M7800 3299 c-19 -12 -70 -37 -114 -56 -96 -43 -280 -143 -501 -273
-49 -29 -139 -78 -200 -108 -60 -30 -139 -71 -175 -92 -36 -20 -166 -90 -290
-155 -255 -133 -654 -352 -840 -461 -166 -97 -262 -142 -335 -155 -67 -12 -97
-28 -121 -64 -34 -51 25 -125 100 -125 57 0 189 62 436 205 338 196 613 345
960 523 113 57 216 112 230 122 14 10 84 47 155 84 72 36 186 97 255 136 134
76 361 190 455 229 80 34 125 80 125 130 0 73 -69 103 -140 60z"/>
<path d="M2720 2692 c0 -49 -3 -116 -6 -148 -6 -54 -10 -61 -46 -87 -40 -28
-68 -77 -68 -119 0 -19 -20 -34 -106 -83 -59 -33 -120 -76 -138 -97 -31 -36
-32 -36 -55 -19 l-23 17 4 242 3 242 -49 0 -49 0 6 -245 7 -244 -29 -16 c-69
-35 -94 -107 -62 -180 34 -77 111 -105 188 -68 55 26 75 66 70 139 l-4 60 76
39 c42 22 103 54 135 73 65 36 92 36 126 2 16 -16 20 -34 20 -90 0 -70 0 -70
-45 -113 -58 -56 -61 -93 -12 -142 64 -64 149 -52 191 27 17 30 18 39 7 65 -7
17 -30 43 -51 59 l-40 29 0 85 0 85 33 15 c21 10 39 30 52 57 l20 42 138 1
137 0 0 -320 c0 -275 -2 -320 -15 -320 -8 0 -30 -16 -49 -35 -64 -63 -59 -154
11 -215 80 -70 212 -17 230 93 7 48 -27 122 -67 145 l-30 17 2 462 3 463 -25
9 c-14 5 -32 12 -40 15 -12 5 -15 -2 -15 -36 0 -24 -2 -81 -3 -128 l-2 -85
-138 -2 -138 -1 -13 30 c-8 17 -33 42 -57 57 l-43 26 -2 75 c-2 121 -13 203
-26 208 -10 3 -13 -19 -13 -86z"/>
<path d="M7045 2629 l-40 -21 3 -463 c3 -458 2 -464 -18 -470 -37 -12 -70 -67
-70 -119 0 -101 54 -153 149 -144 41 4 59 12 83 35 66 66 47 190 -35 231 l-27
13 0 312 0 312 135 -1 136 -1 28 -46 c16 -25 38 -48 49 -51 22 -7 32 -43 32
-121 0 -49 -3 -55 -50 -102 -59 -60 -65 -95 -23 -137 51 -51 123 -47 172 10
40 45 39 72 -4 124 -31 37 -35 48 -35 100 0 91 8 117 45 139 l33 19 23 -23
c31 -30 181 -121 222 -134 32 -11 32 -12 32 -77 0 -65 1 -67 39 -100 117 -101
280 48 193 177 -12 19 -32 38 -44 44 -13 5 -24 16 -26 25 -2 8 -1 121 1 251
l5 237 -47 -2 -47 -1 2 -249 c3 -239 2 -250 -17 -257 -13 -5 -27 0 -44 16 -28
26 -203 128 -237 139 -16 5 -23 18 -28 55 -9 64 -34 104 -80 125 -67 32 -122
11 -170 -64 l-23 -36 -73 7 c-41 4 -102 8 -137 8 l-64 1 4 130 c2 72 1 130 -2
129 -3 0 -23 -9 -45 -20z"/>
<path d="M5018 2560 c-122 -22 -250 -92 -339 -186 -55 -58 -106 -137 -92 -141
6 -2 40 -24 77 -48 37 -25 68 -45 70 -45 2 0 14 20 26 45 28 57 106 127 190
168 60 30 72 32 170 32 88 0 113 -4 154 -23 87 -40 160 -113 232 -230 1 -2 25
14 53 36 28 23 60 44 71 47 28 9 25 24 -15 80 -79 112 -192 203 -303 246 -64
24 -213 34 -294 19z"/>
<path d="M6353 2271 l-33 -15 0 -129 0 -129 -41 -37 c-36 -32 -42 -43 -46 -87
-6 -60 12 -102 57 -136 l30 -22 0 -248 c0 -206 -2 -248 -14 -248 -8 0 -28 -16
-45 -35 -26 -30 -31 -44 -31 -88 0 -66 27 -113 77 -134 42 -17 92 -12 129 12
36 23 67 92 61 133 -8 43 -51 100 -82 108 l-25 6 0 250 0 249 29 10 c32 11 71
76 71 117 0 40 -27 89 -64 118 l-37 29 2 143 c1 78 0 143 -2 145 -2 2 -19 -4
-36 -12z"/>
<path d="M3840 2132 l0 -147 -35 -28 c-54 -43 -68 -129 -31 -190 6 -10 26 -27
44 -38 l32 -21 0 -241 0 -242 -34 -22 c-63 -41 -84 -127 -45 -190 75 -121 251
-56 237 87 -5 51 -30 93 -65 109 -23 11 -23 11 -23 261 l0 250 25 10 c14 5 34
24 45 42 39 65 16 158 -50 196 l-29 17 2 137 c1 75 0 138 -3 141 -3 2 -20 7
-37 10 l-33 7 0 -148z"/>
<path d="M4510 1899 c0 -45 43 -167 85 -237 68 -116 190 -217 318 -262 45 -16
94 -24 177 -27 107 -5 121 -3 207 25 144 46 278 155 346 280 46 85 91 232 71
232 -3 0 -20 -11 -37 -24 -18 -13 -60 -38 -94 -55 -47 -23 -75 -47 -116 -98
-72 -89 -102 -117 -162 -146 -82 -41 -161 -53 -252 -38 -43 7 -98 22 -123 34
-60 28 -153 118 -191 184 -26 44 -41 59 -92 85 -34 17 -78 41 -99 54 l-38 24
0 -31z"/>
<path d="M5070 1100 l0 -195 -35 -28 c-97 -77 -40 -247 83 -247 133 0 185 162
81 252 l-42 36 5 180 c3 99 3 184 -1 189 -3 4 -25 8 -48 8 l-43 0 0 -195z"/>
</g>
</svg>
